<svg width="50" height="50" viewBox="0 0 50 50" fill="none" xmlns="http://www.w3.org/2000/svg">
<path d="M33.5412 24.0391C30.742 24.0391 30.353 26.8331 30.353 26.8331H36.3044C36.3044 26.8331 36.3423 24.0391 33.5412 24.0391Z" fill="#272A2F"/>
<path d="M20.0387 26.8331H14.7629V31.6767H19.4337C19.5131 31.6767 19.6321 31.6785 19.7715 31.6767C20.5229 31.6591 21.9472 31.4404 21.9472 29.3219C21.9472 26.8075 20.0387 26.8331 20.0387 26.8331Z" fill="#272A2F"/>
<path d="M25.0013 4.49878C13.0069 4.49878 3.28345 14.2204 3.28345 26.2149C3.28345 38.2093 13.0069 47.9327 25.0013 47.9327C36.994 47.9327 46.7174 38.2093 46.7174 26.2149C46.7174 14.2213 36.9931 4.49878 25.0013 4.49878ZM29.5724 17.8426H37.0486V20.0739H29.5724V17.8426ZM25.7933 29.5477C25.7933 35.0784 20.0386 34.8958 20.0386 34.8958H14.7628H14.6085H10.6089V16.7754H14.6085H14.7628H20.0386C22.9032 16.7754 25.1645 18.3576 25.1645 21.5997C25.1645 24.8417 22.3996 25.0481 22.3996 25.0481C26.0446 25.0481 25.7933 29.5477 25.7933 29.5477ZM39.7791 29.2514H30.3891C30.3891 32.6169 33.5773 32.4052 33.5773 32.4052C36.5883 32.4052 36.4833 30.4552 36.4833 30.4552H39.6733C39.6733 35.6296 33.4706 35.2751 33.4706 35.2751C26.0305 35.2751 26.5094 28.3474 26.5094 28.3474C26.5094 28.3474 26.5024 21.3862 33.4706 21.3862C40.8057 21.3862 39.7791 29.2514 39.7791 29.2514Z" fill="#272A2F"/>
<path d="M21.3202 21.881C21.3202 19.9963 20.0387 19.9963 20.0387 19.9963H19.3596H14.7629V24.0391H19.7115C20.5652 24.0391 21.3202 23.7648 21.3202 21.881Z" fill="#272A2F"/>
</svg>
