<svg width="55" height="55" viewBox="0 0 55 55" fill="none" xmlns="http://www.w3.org/2000/svg">
<rect width="55" height="55" rx="10" fill="#5875BF"/>
<circle cx="28" cy="28" r="15.5" stroke="#2C2F3E" stroke-width="3"/>
<path d="M22.96 20.108C23.5387 19.7533 24.276 19.464 25.172 19.24C26.0867 19.016 27.02 18.904 27.972 18.904C29.6147 18.904 30.94 19.2867 31.948 20.052C32.956 20.7987 33.46 21.8347 33.46 23.16C33.46 24.7467 32.536 26.268 30.688 27.724C29.6053 28.5827 28.868 29.264 28.476 29.768C28.1027 30.2533 27.916 30.7573 27.916 31.28C27.916 31.896 28.2053 32.3067 28.784 32.512C28.4293 32.904 27.9533 33.1 27.356 33.1C26.572 33.1 25.9093 32.8667 25.368 32.4C24.8453 31.9333 24.584 31.3267 24.584 30.58C24.584 29.2173 25.3773 27.9013 26.964 26.632C27.8413 25.9413 28.4573 25.3627 28.812 24.896C29.1667 24.4293 29.344 23.972 29.344 23.524C29.344 22.9267 29.1387 22.4693 28.728 22.152C28.3173 21.816 27.8133 21.648 27.216 21.648C26.3573 21.648 25.5267 21.9467 24.724 22.544C23.94 23.1413 23.352 23.8973 22.96 24.812V20.108ZM24.864 36.376C24.864 35.7973 25.06 35.312 25.452 34.92C25.844 34.528 26.3667 34.332 27.02 34.332C27.6733 34.332 28.196 34.528 28.588 34.92C28.98 35.2933 29.176 35.7787 29.176 36.376C29.176 36.9547 28.98 37.44 28.588 37.832C28.196 38.2053 27.6733 38.392 27.02 38.392C26.3667 38.392 25.844 38.2053 25.452 37.832C25.06 37.44 24.864 36.9547 24.864 36.376Z" fill="#2C2F3E"/>
</svg>
