<svg width="55" height="55" viewBox="0 0 55 55" fill="none" xmlns="http://www.w3.org/2000/svg">
<rect width="55" height="55" rx="10" fill="#5875BF"/>
<path d="M27.76 45.528C24.72 45.528 21.936 44.84 19.408 43.464C16.88 42.056 14.912 40.104 13.504 37.608C12.128 35.112 11.44 32.248 11.44 29.016C11.44 25.752 12.144 22.888 13.552 20.424C14.96 17.928 16.912 15.992 19.408 14.616C21.904 13.208 24.688 12.504 27.76 12.504C30.736 12.504 33.472 13.192 35.968 14.568C38.464 15.912 40.416 17.832 41.824 20.328C43.264 22.792 43.984 25.688 43.984 29.016C43.984 32.28 43.28 35.16 41.872 37.656C40.464 40.152 38.512 42.088 36.016 43.464C33.552 44.84 30.8 45.528 27.76 45.528ZM27.76 43.368C31.728 43.368 35.008 42.056 37.6 39.432C40.224 36.776 41.536 33.304 41.536 29.016C41.536 26.168 40.928 23.656 39.712 21.48C38.528 19.304 36.88 17.624 34.768 16.44C32.656 15.256 30.32 14.664 27.76 14.664C25.2 14.664 22.848 15.256 20.704 16.44C18.592 17.592 16.928 19.272 15.712 21.48C14.496 23.656 13.888 26.152 13.888 28.968C13.888 31.816 14.496 34.328 15.712 36.504C16.928 38.68 18.608 40.376 20.752 41.592C22.896 42.776 25.232 43.368 27.76 43.368ZM34.144 37.176C33.568 37.944 32.72 38.6 31.6 39.144C30.48 39.688 29.312 39.96 28.096 39.96C25.152 39.96 22.8 38.968 21.04 36.984C19.28 35 18.4 32.488 18.4 29.448C18.4 26.248 19.344 23.56 21.232 21.384C23.152 19.208 25.552 18.12 28.432 18.12C30.192 18.12 31.984 18.68 33.808 19.8V26.76C32.72 23.304 30.992 21.576 28.624 21.576C26.992 21.576 25.632 22.232 24.544 23.544C23.456 24.856 22.912 26.584 22.912 28.728C22.912 30.936 23.456 32.744 24.544 34.152C25.664 35.528 27.088 36.216 28.816 36.216C30.928 36.216 32.704 35.176 34.144 33.096V37.176Z" fill="#2C2F3E"/>
</svg>
