<svg width="44" height="44" viewBox="0 0 44 44" fill="none" xmlns="http://www.w3.org/2000/svg">
<path fill-rule="evenodd" clip-rule="evenodd" d="M22 0.125C9.91992 0.125 0.125 10.1641 0.125 22.5566C0.125 32.4688 6.39453 40.8672 15.0859 43.8359C16.1797 44.041 16.5801 43.3477 16.5801 42.752C16.5801 42.2148 16.5605 40.8086 16.5508 38.9336C10.4668 40.291 9.17773 35.9258 9.17773 35.9258C8.18164 33.3379 6.74609 32.6445 6.74609 32.6445C4.76367 31.248 6.89258 31.2773 6.89258 31.2773C9.08984 31.4336 10.2422 33.5918 10.2422 33.5918C12.1953 37.0195 15.3594 36.0332 16.6094 35.457C16.8047 34.0117 17.3711 33.0156 17.9961 32.459C13.1426 31.8926 8.03516 29.9688 8.03516 21.375C8.03516 18.9238 8.88477 16.9219 10.2812 15.3594C10.0566 14.793 9.30469 12.5078 10.4961 9.42188C10.4961 9.42188 12.332 8.81641 16.5117 11.7168C18.2598 11.2188 20.125 10.9746 21.9902 10.9648C23.8457 10.9746 25.7207 11.2188 27.4688 11.7168C31.6484 8.81641 33.4746 9.42188 33.4746 9.42188C34.666 12.5078 33.9141 14.793 33.6895 15.3594C35.0859 16.9316 35.9355 18.9336 35.9355 21.375C35.9355 29.9883 30.8184 31.8828 25.9453 32.4395C26.7266 33.1328 27.4297 34.5 27.4297 36.5898C27.4297 39.5879 27.4004 42.0098 27.4004 42.7422C27.4004 43.3379 27.791 44.041 28.9043 43.8164C37.6152 40.8574 43.875 32.459 43.875 22.5566C43.875 10.1641 34.0801 0.125 22 0.125Z" fill="#272A2F"/>
</svg>
